<svg xmlns="http://www.w3.org/2000/svg" width="24.348" height="24.348" viewBox="0 0 24.348 24.348">
  <path id="Default" d="M25.3,12.217a1.178,1.178,0,1,0,2.128-1.011ZM4.373,14.686a1.178,1.178,0,0,0,2.332.334ZM21.922,12.1a1.178,1.178,0,0,0,0,2.356Zm3.927,1.178v0Zm1.571-1.571h0ZM28.6,7a1.178,1.178,0,0,0-2.356,0ZM7.55,20.631a1.178,1.178,0,0,0-2.128,1.011Zm20.924-2.469a1.178,1.178,0,0,0-2.333-.334ZM10.926,20.744a1.178,1.178,0,1,0,0-2.356ZM7,19.565v1.178H7ZM5.428,21.136h0ZM4.25,25.849a1.178,1.178,0,1,0,2.356,0ZM16.424,6.606A9.819,9.819,0,0,1,25.3,12.217l2.128-1.011a12.175,12.175,0,0,0-11-6.956ZM6.706,15.02a9.82,9.82,0,0,1,9.718-8.414V4.25A12.176,12.176,0,0,0,4.373,14.686Zm15.216-.56h3.927V12.1H21.922ZM28.6,11.711V7H26.241v4.712ZM25.849,14.46A2.749,2.749,0,0,0,28.6,11.711H26.241a.393.393,0,0,1-.393.393ZM16.424,26.241A9.819,9.819,0,0,1,7.55,20.631L5.422,21.642a12.175,12.175,0,0,0,11,6.956Zm9.718-8.414a9.82,9.82,0,0,1-9.718,8.414V28.6A12.176,12.176,0,0,0,28.475,18.161Zm-15.216.56H7v2.356h3.927ZM4.25,21.136v4.712H6.606V21.136ZM7,18.387A2.749,2.749,0,0,0,4.25,21.136H6.606A.393.393,0,0,1,7,20.744Z" transform="translate(-4.25 -4.25)" fill="#fff"/>
</svg>
