<svg xmlns="http://www.w3.org/2000/svg" width="22" height="30" viewBox="0 0 22 30">
  <g id="Acrobat-File" transform="translate(-4)">
    <path id="Path_1" data-name="Path 1" d="M7.1,25.5c0,.1.2.3.7.6h.1c.5,0,1.5-.9,2.9-2.8C9.1,24,7.1,24.9,7.1,25.5Z" fill="#ff6b00"/>
    <path id="Path_2" data-name="Path 2" d="M14.8,11.3A1,1,0,0,0,14,11a.882.882,0,0,0-.9.5c-.4.8,0,2.5,1.2,4.4C15.1,13.6,15.2,12,14.8,11.3Z" fill="#ff6b00"/>
    <path id="Path_3" data-name="Path 3" d="M25.5,0H12.3c-.1,0-.1.1-.2.1l-8,8a.349.349,0,0,0-.1.2V29.5a.472.472,0,0,0,.5.5h21a.472.472,0,0,0,.5-.5V.5A.472.472,0,0,0,25.5,0ZM12,1.7V8H5.7ZM22.6,23c-1.4,0-3.6-1.5-4.7-2.3a18.7,18.7,0,0,0-2.8.8c-.7.3-1.5.6-2.4,1l-.3.1C11.3,24.3,9.3,27,7.9,27h0a.749.749,0,0,1-.5-.1c-1-.4-1.4-.9-1.3-1.5.1-1.3,2.4-2.4,5.6-3.6A27.165,27.165,0,0,0,13.2,19c.2-.5.5-1.2.8-2-1.7-2.2-2.4-4.6-1.7-6a1.728,1.728,0,0,1,1.8-1,2.009,2.009,0,0,1,1.6.7c.7,1,.6,3.1-.5,6.1a5.716,5.716,0,0,0,.7.8,21.976,21.976,0,0,0,2.3,2,17.96,17.96,0,0,1,2.2-.2c2.3,0,3.7.7,3.7,2C24,22.4,23.5,23,22.6,23Z" fill="#ff6b00"/>
    <path id="Path_4" data-name="Path 4" d="M20.3,20.5h-1A8.375,8.375,0,0,0,22.5,22c.3,0,.4,0,.4-.5C23,20.8,21.6,20.5,20.3,20.5Z" fill="#ff6b00"/>
    <path id="Path_5" data-name="Path 5" d="M14.7,17.9c-.2.6-.5,1.2-.6,1.5-.2.5-.6,1.2-.9,1.8a11.64,11.64,0,0,0,1.5-.6,14.161,14.161,0,0,1,2.2-.7,12.878,12.878,0,0,1-1.7-1.6A1.756,1.756,0,0,1,14.7,17.9Z" fill="#ff6b00"/>
  </g>
</svg>
