<svg id="Group_13212" data-name="Group 13212" xmlns="http://www.w3.org/2000/svg" width="49.616" height="46.263" viewBox="0 0 49.616 46.263">
  <path id="Path_1104" data-name="Path 1104" d="M167.169,129.62l-33.675,31.4c13.638-7.849,21.441-11.367,30.687-14.586l3.288-16.647A.181.181,0,0,0,167.169,129.62Z" transform="translate(-117.857 -129.57)" fill="#fff"/>
  <path id="Path_1105" data-name="Path 1105" d="M123.725,173.73l-7.569,7.058-2.477,2.283a.181.181,0,0,0,.123.314l12.521-.03a.182.182,0,0,0,.137-.063l5.229-6.079a.179.179,0,0,1,.137-.063l12.046-.041a.18.18,0,0,1,.178.216l-1.161,5.836a.181.181,0,0,0,.179.216l10.958-.031a.18.18,0,0,0,.177-.146l2.972-15.185.251-1.271C154.737,162.676,140.049,165.953,123.725,173.73Z" transform="translate(-113.62 -137.121)" fill="#fff"/>
</svg>
