<svg width="22" height="20" viewBox="0 0 22 20" fill="none" xmlns="http://www.w3.org/2000/svg">
<path d="M15.5996 11.4655L14.1471 18.3184L21 16.8659L19.8454 15.7114L17.4991 16.1955C18.8399 14.594 19.622 12.5456 19.622 10.311C19.622 5.17132 15.4507 1 10.311 1C5.17132 1 1 5.17132 1 10.311C1 15.4507 5.17132 19.622 10.311 19.622C10.9069 19.622 11.54 19.5475 12.0987 19.4358L12.3966 17.946C11.7263 18.1322 11.0186 18.2439 10.2737 18.2439C5.9162 18.2067 2.37803 14.6685 2.37803 10.311C2.37803 5.9162 5.9162 2.37803 10.311 2.37803C14.6685 2.37803 18.2439 5.9162 18.2439 10.311C18.2439 12.3966 17.4246 14.2961 16.121 15.7114L16.7914 12.6201L15.5996 11.4655Z" fill="#FF6B00" stroke="#FF6B00" stroke-width="0.5"/>
</svg>
