<svg id="Group_13212" data-name="Group 13212" xmlns="http://www.w3.org/2000/svg" width="22.545" height="22.637" viewBox="0 0 22.545 22.637">
  <path id="Path_620" data-name="Path 620" d="M-135.992,22.453l-5.617-5.617a.824.824,0,0,1,0-1.165l.013-.012-1.891-1.891a7.774,7.774,0,0,1-4.87,1.7,7.781,7.781,0,0,1-5.482-2.241,7.774,7.774,0,0,1-2.343-5.512,7.774,7.774,0,0,1,2.241-5.555,7.774,7.774,0,0,1,5.512-2.343,7.767,7.767,0,0,1,5.555,2.241,7.774,7.774,0,0,1,2.343,5.512,7.767,7.767,0,0,1-1.781,5.044l1.881,1.881.012-.013a.824.824,0,0,1,1.165,0l5.617,5.617ZM-148.355,1.464h-.059a6.137,6.137,0,0,0-4.352,1.85A6.138,6.138,0,0,0-154.535,7.7a6.138,6.138,0,0,0,1.85,4.352,6.209,6.209,0,0,0,8.656,0l.061-.059.02-.021a6.138,6.138,0,0,0,1.769-4.385,6.138,6.138,0,0,0-1.85-4.352A6.137,6.137,0,0,0-148.355,1.464Z" transform="translate(156.183 0.184)" fill="#fff"/>
</svg>
