<svg width="512" height="302" viewBox="0 0 512 302" fill="none" xmlns="http://www.w3.org/2000/svg">
<path fill-rule="evenodd" clip-rule="evenodd" d="M25.5398 79L27 77.5403L19.585 70.1279C21.0882 68.3117 21.9608 66.0003 21.9608 63.486C21.9608 57.7087 17.2369 53 11.4804 53C5.72394 53 1 57.7087 1 63.486C1 69.2634 5.72394 73.972 11.4804 73.972C14.0007 73.972 16.3105 73.0451 18.1211 71.584L25.5398 79ZM21.4831 63.486C21.4831 66.0413 20.5384 68.3745 18.9269 70.1521L26.3177 77.5403L25.5398 78.318L25.5396 78.3179L26.3175 77.5403L18.9266 70.1521C20.5382 68.3745 21.4829 66.0413 21.4829 63.486C21.4829 57.9865 16.9816 53.4869 11.4802 53.4869C11.4802 53.4869 11.4803 53.4869 11.4804 53.4869C16.9819 53.4869 21.4831 57.9865 21.4831 63.486ZM11.416 73.4849C11.4374 73.485 11.4589 73.4851 11.4804 73.4851L11.416 73.4849ZM18.1487 70.9299L18.1486 70.9298C18.1336 70.9429 18.1187 70.956 18.1038 70.969C18.1188 70.956 18.1338 70.943 18.1487 70.9299ZM3.0668 63.486C3.0668 58.8755 6.84516 55.0849 11.4804 55.0849C16.1156 55.0849 19.894 58.8755 19.894 63.486C19.894 68.0966 16.1156 71.8871 11.4804 71.8871C6.84516 71.8871 3.0668 68.0966 3.0668 63.486ZM10.9721 72.3596C6.31584 72.0941 2.58886 68.204 2.58886 63.486C2.58886 58.6739 6.46602 54.723 11.2518 54.6009C6.46613 54.7232 2.58911 58.674 2.58911 63.486C2.58911 68.204 6.31596 72.094 10.9721 72.3596Z" fill="white"/>
<path fill-rule="evenodd" clip-rule="evenodd" d="M81.5398 79L83 77.5403L75.585 70.1279C77.0882 68.3117 77.9608 66.0003 77.9608 63.486C77.9608 57.7087 73.2369 53 67.4804 53C61.7239 53 57 57.7087 57 63.486C57 69.2634 61.7239 73.972 67.4804 73.972C70.0007 73.972 72.3105 73.0451 74.1211 71.584L81.5398 79ZM77.4831 63.486C77.4831 66.0413 76.5384 68.3745 74.9269 70.1521L82.3177 77.5403L81.5398 78.318L81.5396 78.3179L82.3175 77.5403L74.9266 70.1521C76.5382 68.3745 77.4829 66.0413 77.4829 63.486C77.4829 57.9865 72.9816 53.4869 67.4802 53.4869C67.4802 53.4869 67.4803 53.4869 67.4804 53.4869C72.9819 53.4869 77.4831 57.9865 77.4831 63.486ZM67.416 73.4849C67.4374 73.485 67.4589 73.4851 67.4804 73.4851L67.416 73.4849ZM74.1487 70.9299L74.1486 70.9298C74.1336 70.9429 74.1187 70.956 74.1038 70.969C74.1188 70.956 74.1338 70.943 74.1487 70.9299ZM59.0668 63.486C59.0668 58.8755 62.8452 55.0849 67.4804 55.0849C72.1156 55.0849 75.894 58.8755 75.894 63.486C75.894 68.0966 72.1156 71.8871 67.4804 71.8871C62.8452 71.8871 59.0668 68.0966 59.0668 63.486ZM66.9721 72.3596C62.3158 72.0941 58.5889 68.204 58.5889 63.486C58.5889 58.6739 62.466 54.723 67.2518 54.6009C62.4661 54.7232 58.5891 58.674 58.5891 63.486C58.5891 68.204 62.316 72.094 66.9721 72.3596Z" fill="#333333"/>
<path fill-rule="evenodd" clip-rule="evenodd" d="M53.5398 79L55 77.5403L47.585 70.1279C49.0882 68.3117 49.9608 66.0003 49.9608 63.486C49.9608 57.7087 45.2369 53 39.4804 53C33.7239 53 29 57.7087 29 63.486C29 69.2634 33.7239 73.972 39.4804 73.972C42.0007 73.972 44.3105 73.0451 46.1211 71.584L53.5398 79ZM49.4831 63.486C49.4831 66.0413 48.5384 68.3745 46.9269 70.1521L54.3177 77.5403L53.5398 78.318L53.5396 78.3179L54.3175 77.5403L46.9266 70.1521C48.5382 68.3745 49.4829 66.0413 49.4829 63.486C49.4829 57.9865 44.9816 53.4869 39.4802 53.4869C39.4802 53.4869 39.4803 53.4869 39.4804 53.4869C44.9819 53.4869 49.4831 57.9865 49.4831 63.486ZM39.416 73.4849C39.4374 73.485 39.4589 73.4851 39.4804 73.4851L39.416 73.4849ZM46.1487 70.9299L46.1486 70.9298C46.1336 70.9429 46.1187 70.956 46.1038 70.969C46.1188 70.956 46.1338 70.943 46.1487 70.9299ZM31.0668 63.486C31.0668 58.8755 34.8452 55.0849 39.4804 55.0849C44.1156 55.0849 47.894 58.8755 47.894 63.486C47.894 68.0966 44.1156 71.8871 39.4804 71.8871C34.8452 71.8871 31.0668 68.0966 31.0668 63.486ZM38.9721 72.3596C34.3158 72.0941 30.5889 68.204 30.5889 63.486C30.5889 58.6739 34.466 54.723 39.2518 54.6009C34.4661 54.7232 30.5891 58.674 30.5891 63.486C30.5891 68.204 34.316 72.094 38.9721 72.3596Z" fill="#FF6B00"/>
<path fill-rule="evenodd" clip-rule="evenodd" d="M16 81C7.71573 81 1 87.7157 1 96C1 104.284 7.71573 111 16 111C24.2843 111 31 104.284 31 96C31 87.7157 24.2843 81 16 81ZM22.1096 93.6721C22.1096 93.5431 22.1056 93.4161 22.1006 93.2891C22.6776 92.8731 23.1776 92.3521 23.5756 91.7601C23.0446 91.9961 22.4746 92.1541 21.8766 92.2251C22.4886 91.8591 22.9556 91.2811 23.1766 90.5901C22.6056 90.9301 21.9736 91.1761 21.2996 91.3071C20.7616 90.7321 19.9936 90.3751 19.1446 90.3751C17.5126 90.3751 16.1906 91.6971 16.1906 93.3281C16.1906 93.5601 16.2156 93.7851 16.2656 94.0021C13.8106 93.8791 11.6326 92.7031 10.1766 90.9161C9.9226 91.3521 9.7776 91.8591 9.7776 92.4001C9.7776 93.4261 10.2986 94.3301 11.0916 94.8591C10.6076 94.8441 10.1506 94.7111 9.7516 94.4901V94.5271C9.7516 95.9591 10.7716 97.1521 12.1226 97.4241C11.8746 97.4921 11.6136 97.5271 11.3446 97.5271C11.1546 97.5271 10.9686 97.5101 10.7876 97.4751C11.1656 98.6481 12.2556 99.5021 13.5486 99.5251C12.5376 100.318 11.2636 100.791 9.8796 100.791C9.6416 100.791 9.4066 100.777 9.1736 100.75C10.4806 101.588 12.0346 102.078 13.7026 102.078C19.1366 102.078 22.1096 97.5761 22.1096 93.6721Z" fill="white"/>
<path fill-rule="evenodd" clip-rule="evenodd" d="M48 81C39.7157 81 33 87.7157 33 96C33 104.284 39.7157 111 48 111C56.2843 111 63 104.284 63 96C63 87.7157 56.2843 81 48 81ZM49.2967 91.3672H51.5527V88.8942H49.2967C47.4317 88.8942 46.0707 90.4882 46.0707 92.4472V93.8142H43.6577V96.1352H46.0707V103.105H48.7337V96.1352H51.5527V93.8142H48.7337V92.1852C48.7337 91.7172 49.0307 91.3672 49.2967 91.3672Z" fill="white"/>
<path fill-rule="evenodd" clip-rule="evenodd" d="M79.5 81C71.4919 81 65 87.4919 65 95.5V96.5C65 104.508 71.4919 111 79.5 111C87.5081 111 94 104.508 94 96.5V95.5C94 87.4919 87.5081 81 79.5 81ZM76.3116 88.0481C77.1364 88.0092 77.3998 88 79.5 88C81.6002 88 81.8636 88.0092 82.6884 88.0481C83.5116 88.087 84.0737 88.2222 84.5656 88.42C85.0742 88.6244 85.5054 88.898 85.9354 89.3427C86.3653 89.7875 86.6297 90.2336 86.8274 90.7597C87.0185 91.2686 87.1493 91.8501 87.1868 92.7016C87.2244 93.5549 87.2333 93.8273 87.2333 96C87.2333 98.1727 87.2244 98.4451 87.1868 99.2984C87.1493 100.15 87.0185 100.731 86.8274 101.24C86.6297 101.766 86.3653 102.212 85.9354 102.657C85.5054 103.102 85.0742 103.376 84.5656 103.58C84.0737 103.778 83.5116 103.913 82.6884 103.952C81.8636 103.991 81.6002 104 79.5 104C77.3998 104 77.1364 103.991 76.3116 103.952C75.4884 103.913 74.9263 103.778 74.4344 103.58C73.9258 103.376 73.4946 103.102 73.0646 102.657C72.6347 102.212 72.3703 101.766 72.1727 101.24C71.9815 100.731 71.8507 100.15 71.8132 99.2984C71.7756 98.4451 71.7667 98.1727 71.7667 96C71.7667 93.8273 71.7756 93.5549 71.8132 92.7016C71.8507 91.8501 71.9815 91.2686 72.1727 90.7597C72.3703 90.2336 72.6347 89.7875 73.0646 89.3427C73.4946 88.898 73.9258 88.6244 74.4344 88.42C74.9263 88.2222 75.4884 88.087 76.3116 88.0481ZM82.6249 89.4881C81.8095 89.4496 81.5649 89.4414 79.5 89.4414C77.4351 89.4414 77.1905 89.4496 76.3751 89.4881C75.6211 89.5237 75.2116 89.654 74.9391 89.7635C74.5781 89.9087 74.3205 90.082 74.0499 90.362C73.7793 90.6419 73.6117 90.9084 73.4714 91.2818C73.3655 91.5637 73.2395 91.9873 73.2052 92.7673C73.1679 93.6109 73.1601 93.8639 73.1601 96C73.1601 98.1361 73.1679 98.3891 73.2052 99.2327C73.2395 100.013 73.3655 100.436 73.4714 100.718C73.6117 101.092 73.7793 101.358 74.0499 101.638C74.3205 101.918 74.5781 102.091 74.9391 102.236C75.2116 102.346 75.6211 102.476 76.3751 102.512C77.1904 102.55 77.4349 102.559 79.5 102.559C81.5651 102.559 81.8096 102.55 82.6249 102.512C83.3789 102.476 83.7884 102.346 84.0609 102.236C84.4219 102.091 84.6795 101.918 84.9501 101.638C85.2207 101.358 85.3883 101.092 85.5286 100.718C85.6345 100.436 85.7605 100.013 85.7948 99.2327C85.8321 98.3891 85.8399 98.1361 85.8399 96C85.8399 93.8639 85.8321 93.6109 85.7948 92.7673C85.7605 91.9873 85.6345 91.5637 85.5286 91.2818C85.3883 90.9084 85.2207 90.6419 84.9501 90.362C84.6795 90.082 84.4219 89.9087 84.0609 89.7635C83.7884 89.654 83.3789 89.5237 82.6249 89.4881ZM79.5 91.8919C77.3068 91.8919 75.5288 93.7311 75.5288 96C75.5288 98.2689 77.3068 100.108 79.5 100.108C81.6932 100.108 83.4712 98.2689 83.4712 96C83.4712 93.7311 81.6932 91.8919 79.5 91.8919ZM76.9222 96C76.9222 97.4728 78.0763 98.6667 79.5 98.6667C80.9237 98.6667 82.0778 97.4728 82.0778 96C82.0778 94.5272 80.9237 93.3333 79.5 93.3333C78.0763 93.3333 76.9222 94.5272 76.9222 96ZM84.5561 91.7296C84.5561 92.2598 84.1406 92.6896 83.6281 92.6896C83.1156 92.6896 82.7001 92.2598 82.7001 91.7296C82.7001 91.1994 83.1156 90.7696 83.6281 90.7696C84.1406 90.7696 84.5561 91.1994 84.5561 91.7296Z" fill="white"/>
<path fill-rule="evenodd" clip-rule="evenodd" d="M111 81C102.716 81 96 87.7157 96 96C96 104.284 102.716 111 111 111C119.284 111 126 104.284 126 96C126 87.7157 119.284 81 111 81ZM111.6 93.4C112 92.8 113.1 92 114.7 92C116.6 92 118 93.2 118 96.2V102.2H115.3V96.6C115.3 95.3 114.6 94.5 113.5 94.5C112.7 94.5 112 95.1 111.8 95.6C111.7 95.7 111.7 96 111.7 96.3V102.1H109V92.4H111.4L111.6 93.4ZM107 102H104.3V92.3H107V102ZM104 89.5C104 88.6 104.7 88 105.7 88C106.7 88 107.3 88.6 107.4 89.5C107.4 90.4 106.8 91 105.7 91C104.7 91 104 90.4 104 89.5Z" fill="white"/>
<path d="M5 113L9 119H1L5 113Z" fill="white"/>
<path fill-rule="evenodd" clip-rule="evenodd" d="M144 81C135.716 81 129 87.7157 129 96C129 104.284 135.716 111 144 111C152.284 111 159 104.284 159 96C159 87.7157 152.284 81 144 81ZM136 96.0005C136 91.5816 139.583 88 144 88C148.418 88 152 91.5816 152 96.0005C152 100.418 148.418 104 144 104C143.213 104 142.453 103.884 141.733 103.672C142.037 103.192 142.369 102.575 142.538 101.958C142.636 101.603 143.101 99.7599 143.101 99.7599C143.38 100.29 144.192 100.756 145.055 100.756C147.628 100.756 149.372 98.4117 149.372 95.2732C149.372 92.9015 147.362 90.6897 144.307 90.6897C140.506 90.6897 138.59 93.4161 138.59 95.6881C138.59 97.0645 139.11 98.2885 140.229 98.7448C140.411 98.82 140.575 98.7466 140.629 98.5444C140.649 98.4669 140.685 98.3235 140.72 98.1862C140.748 98.0751 140.775 97.968 140.791 97.9027C140.845 97.7014 140.825 97.6318 140.677 97.4559C140.355 97.0758 140.15 96.5847 140.15 95.8866C140.15 93.8658 141.662 92.0567 144.088 92.0567C146.236 92.0567 147.416 93.3691 147.416 95.1218C147.416 97.4286 146.396 99.3751 144.88 99.3751C144.043 99.3751 143.417 98.6836 143.618 97.8341C143.705 97.4665 143.821 97.0884 143.935 96.7208C144.135 96.0749 144.324 95.4616 144.324 94.9957C144.324 94.3409 143.972 93.7943 143.245 93.7943C142.39 93.7943 141.702 94.6796 141.702 95.865C141.702 96.6205 141.957 97.1313 141.957 97.1313C141.957 97.1313 141.082 100.841 140.928 101.49C140.786 102.098 140.767 102.769 140.79 103.327C137.97 102.09 136 99.2754 136 96.0005Z" fill="white"/>
<path fill-rule="evenodd" clip-rule="evenodd" d="M208 81C199.716 81 193 87.7157 193 96C193 104.284 199.716 111 208 111C216.284 111 223 104.284 223 96C223 87.7157 216.284 81 208 81ZM212.66 99.2983C214.921 96.3927 216.09 94.1044 216.165 92.4334C216.267 90.1962 215.436 89.0543 213.672 89.0033C211.291 88.9244 209.68 90.2704 208.836 93.0322C209.272 92.8419 209.694 92.749 210.107 92.749C210.98 92.749 211.365 93.2411 211.263 94.2204C211.212 94.8146 210.827 95.6779 210.107 96.8151C209.388 97.9523 208.845 98.5186 208.487 98.5186C208.023 98.5186 207.601 97.6459 207.216 95.8961C207.086 95.3808 206.854 94.0719 206.519 91.96C206.208 90.0059 205.387 89.0915 204.05 89.2214C203.484 89.2725 202.639 89.7877 201.506 90.7624C200.685 91.5051 199.849 92.2524 199 92.9951L199.808 94.0348C200.574 93.4963 201.024 93.2271 201.154 93.2271C201.743 93.2271 202.291 94.1508 202.806 95.9982C203.038 96.8453 203.269 97.6924 203.5 98.5395C203.731 99.3866 203.962 100.234 204.194 101.081C204.886 102.928 205.73 103.852 206.733 103.852C208.348 103.852 210.325 102.334 212.66 99.2983Z" fill="white"/>
<path fill-rule="evenodd" clip-rule="evenodd" d="M240 81C231.716 81 225 87.7157 225 96C225 104.284 231.716 111 240 111C248.284 111 255 104.284 255 96C255 87.7157 248.284 81 240 81ZM234.03 98.3013C233.942 97.4308 234.05 96.1193 234.306 95.7028C234.426 95.5103 234.601 95.4103 234.797 95.4178C234.925 95.4193 235.039 95.4613 237.579 96.5258C237.581 96.5258 238.321 96.8328 238.321 96.8328C238.59 96.9348 238.753 97.2183 238.736 97.5383C238.718 97.8513 238.542 98.0963 238.28 98.1633C238.276 98.1658 237.225 98.5058 237.225 98.5058C234.861 99.2783 234.783 99.3003 234.658 99.2933C234.461 99.2868 234.289 99.1688 234.187 98.9713C234.113 98.8283 234.062 98.5888 234.03 98.3013ZM240.041 100.907C240.034 103.431 240.03 103.514 239.988 103.635C239.92 103.823 239.761 103.948 239.541 103.989C238.909 104.099 236.93 103.359 236.517 102.86C236.434 102.757 236.385 102.645 236.374 102.533C236.364 102.454 236.376 102.376 236.402 102.301C236.445 102.175 236.518 102.077 238.299 99.9536C238.301 99.9536 238.819 99.3287 238.819 99.3287C238.996 99.1037 239.312 99.0327 239.605 99.1472C239.891 99.2597 240.064 99.5082 240.048 99.7806C240.047 99.7926 240.041 100.907 240.041 100.907ZM245.993 100.185C245.901 100.833 244.599 102.515 244.002 102.757C243.795 102.842 243.597 102.821 243.441 102.696C243.34 102.616 243.233 102.453 241.83 100.138L241.413 99.4486C241.253 99.2011 241.284 98.8756 241.484 98.6281C241.676 98.3856 241.963 98.2951 242.213 98.3936C242.227 98.4001 243.263 98.7481 243.263 98.7481C245.625 99.5356 245.702 99.5655 245.802 99.642C245.955 99.7655 246.024 99.96 245.993 100.185ZM245.677 96.0328C245.571 96.1033 245.467 96.1388 242.782 96.7993C242.352 96.9033 242.114 96.9618 241.982 97.0133C241.985 97.0093 241.996 96.9903 241.996 96.9903C241.728 97.0658 241.435 96.9348 241.262 96.6658C241.095 96.4058 241.097 96.1018 241.268 95.8908C241.276 95.8823 241.926 94.9828 241.926 94.9828C243.363 92.9858 243.44 92.8823 243.544 92.8133C243.71 92.6998 243.912 92.6928 244.113 92.7913C244.682 93.0738 245.838 94.8168 245.907 95.4858C245.908 95.4943 245.907 95.5013 245.907 95.5088C245.921 95.7358 245.839 95.9223 245.677 96.0328ZM239.683 88.429C239.721 88.6525 240.04 93.4664 240.086 94.5469C240.13 95.4677 239.742 95.5911 239.615 95.6317L239.614 95.6319C239.486 95.6724 239.095 95.7949 238.615 95.0044C238.615 95.0044 235.368 89.8165 235.292 89.6565C235.246 89.477 235.304 89.273 235.459 89.108C235.945 88.599 238.564 87.8525 239.249 88.0255C239.473 88.083 239.628 88.2275 239.683 88.429Z" fill="white"/>
<path fill-rule="evenodd" clip-rule="evenodd" d="M176 81C167.716 81 161 87.7157 161 96C161 104.284 167.716 111 176 111C184.284 111 191 104.284 191 96C191 87.7157 184.284 81 176 81ZM174.221 93.4192L174.221 98.2129L178.798 95.8243L174.221 93.4192ZM183.654 90.8952C184.164 91.4129 184.33 92.5885 184.33 92.5885C184.33 92.5885 184.5 93.9694 184.5 95.3498V96.6443C184.5 98.0252 184.33 99.4056 184.33 99.4056C184.33 99.4056 184.164 100.581 183.654 101.099C183.072 101.711 182.426 101.775 182.061 101.81C182.021 101.814 181.984 101.818 181.951 101.822C179.572 101.995 176 102 176 102C176 102 171.58 101.959 170.22 101.828C170.156 101.816 170.077 101.807 169.989 101.796C169.558 101.744 168.882 101.663 168.345 101.099C167.836 100.581 167.67 99.4056 167.67 99.4056C167.67 99.4056 167.5 98.0252 167.5 96.6443V95.3498C167.5 93.9694 167.67 92.5885 167.67 92.5885C167.67 92.5885 167.836 91.4129 168.345 90.8952C168.929 90.2819 169.575 90.2193 169.941 90.184C169.98 90.1801 170.016 90.1766 170.049 90.1727C172.428 90 175.996 90 175.996 90H176.004C176.004 90 179.572 90 181.951 90.1727C181.984 90.1766 182.02 90.1801 182.059 90.184C182.424 90.2193 183.071 90.282 183.654 90.8952Z" fill="white"/>
<path d="M18 127.588C18 127.324 17.8093 127.159 17.4277 127.095L12.2993 126.313L10.0007 121.439C9.87135 121.146 9.70434 121 9.50005 121C9.2958 121 9.1289 121.146 8.99947 121.439L6.70072 126.313L1.57204 127.095C1.19073 127.159 1 127.324 1 127.588C1 127.738 1.08517 127.909 1.25546 128.102L4.97426 131.894L4.09566 137.25C4.08203 137.35 4.07526 137.422 4.07526 137.464C4.07526 137.614 4.11097 137.741 4.18247 137.845C4.25393 137.948 4.36114 138 4.50424 138C4.62691 138 4.76306 137.957 4.91289 137.872L9.49995 135.343L14.0873 137.872C14.2306 137.957 14.3668 138 14.4958 138C14.6325 138 14.7361 137.948 14.8076 137.845C14.8789 137.741 14.9146 137.614 14.9146 137.464C14.9146 137.372 14.9112 137.3 14.9044 137.25L14.0257 131.894L17.7342 128.102C17.9116 127.916 18 127.745 18 127.588Z" fill="#FF6B00"/>
<mask id="mask0" mask-type="alpha" maskUnits="userSpaceOnUse" x="1" y="121" width="17" height="17">
<path d="M18 127.588C18 127.324 17.8093 127.159 17.4277 127.095L12.2993 126.313L10.0007 121.439C9.87135 121.146 9.70434 121 9.50005 121C9.2958 121 9.1289 121.146 8.99947 121.439L6.70072 126.313L1.57204 127.095C1.19073 127.159 1 127.324 1 127.588C1 127.738 1.08517 127.909 1.25546 128.102L4.97426 131.894L4.09566 137.25C4.08203 137.35 4.07526 137.422 4.07526 137.464C4.07526 137.614 4.11097 137.741 4.18247 137.845C4.25393 137.948 4.36114 138 4.50424 138C4.62691 138 4.76306 137.957 4.91289 137.872L9.49995 135.343L14.0873 137.872C14.2306 137.957 14.3668 138 14.4958 138C14.6325 138 14.7361 137.948 14.8076 137.845C14.8789 137.741 14.9146 137.614 14.9146 137.464C14.9146 137.372 14.9112 137.3 14.9044 137.25L14.0257 131.894L17.7342 128.102C17.9116 127.916 18 127.745 18 127.588Z" fill="white"/>
</mask>
<g mask="url(#mask0)">
</g>
<path d="M42.2284 140L42.8426 141.756C37.2636 154.85 30.7121 167.598 23.1881 180L0.999992 180C3.508 173.879 6.06718 167.013 8.67754 159.401L15.4338 140L42.2284 140ZM80.2322 140L81 141.756C75.6769 154.265 69.0742 167.013 61.1919 180L39.0806 180C40.4114 176.7 41.7678 173.214 43.1497 169.541C44.5317 165.868 47.9866 156.021 53.5144 140L80.2322 140Z" fill="#FF6B00"/>
<path d="M17.5662 229.511C16.8979 228.778 1 211.172 1 198.873C1 194.398 2.79106 190.106 5.97918 186.942C9.1673 183.778 13.4913 182 18 182C22.5087 182 26.8327 183.778 30.0208 186.942C33.2089 190.106 35 194.398 35 198.873C35 211.172 19.1138 228.778 18.4338 229.511L18 230L17.5662 229.511Z" fill="#FF6B00"/>
<path d="M18 205C21.3137 205 24 202.314 24 199C24 195.686 21.3137 193 18 193C14.6863 193 12 195.686 12 199C12 202.314 14.6863 205 18 205Z" fill="white"/>
<circle cx="11" cy="242" r="9" stroke="#FF6B00" stroke-width="2"/>
<path d="M7.66667 242L10.3333 244.667L15 240" stroke="#FF6B00" stroke-width="2" stroke-linecap="round" stroke-linejoin="round"/>
<path d="M25.4906 268.195C25.4906 263.407 21.5923 259.508 16.8042 259.508V261.542C20.4906 261.542 23.4567 264.551 23.4567 268.195H25.4906Z" fill="#FF6B00"/>
<path d="M30.9995 268.195C30.9995 260.356 24.6012 254 16.7623 254V256.034C23.4995 256.034 28.9656 261.5 28.9656 268.195H30.9995Z" fill="#FF6B00"/>
<path d="M21.2534 284C18.4992 284 14.0077 282.771 8.11783 276.881C0.533083 269.297 0.744948 263.958 1.16868 262.051C1.59241 260.186 2.77885 258.619 4.728 257.347L4.81275 257.305C5.44834 256.881 6.16868 256.627 6.93139 256.627C8.20258 256.627 9.38902 257.263 10.067 258.322C11.1263 259.932 12.0585 261.415 12.7788 262.475L12.8636 262.644C13.6687 263.915 13.7958 266.076 12.6941 267.136C12.3551 267.475 11.7195 267.983 11.5924 268.068C11.3805 268.237 11.2534 268.364 11.2111 268.407C11.2111 268.407 11.2111 268.576 11.4229 268.958C11.9314 269.805 12.4399 270.398 13.4568 271.542L13.5416 271.627C14.6856 272.644 15.2788 273.153 16.1263 273.661C16.4653 273.873 16.6348 273.873 16.6772 273.873C16.7195 273.873 16.8466 273.746 17.0161 273.492C17.1009 273.364 17.6094 272.729 17.9483 272.347C18.4568 271.839 19.2195 271.542 20.1094 271.542C20.9144 271.542 21.8043 271.797 22.3975 272.178L22.7365 272.39C23.7534 273.068 25.1941 273.958 26.7195 274.975C27.567 275.525 28.1178 276.415 28.3297 277.39C28.5416 278.407 28.2873 279.424 27.7365 280.229L27.6941 280.271C26.4229 282.22 24.8551 283.407 22.9907 283.831C22.4399 283.915 21.8466 284 21.2534 284ZM6.93139 258.619C6.59241 258.619 6.25342 258.703 5.95681 258.915L5.82969 259C4.34664 259.975 3.45681 261.119 3.1602 262.475C2.86359 263.746 2.48224 268.407 9.55851 275.441C15.1941 281.119 19.3043 281.966 21.2534 281.966C21.7195 281.966 22.1433 281.924 22.5246 281.839C23.8382 281.542 25.0246 280.653 25.9992 279.169L26.0839 279.042C26.3382 278.661 26.4653 278.195 26.3382 277.729C26.2534 277.263 25.9992 276.881 25.6178 276.627C24.0924 275.61 22.6941 274.72 21.6772 274.042L21.3382 273.831C21.0416 273.619 20.5755 273.534 20.1517 273.534C19.7704 273.534 19.5161 273.619 19.4314 273.703C19.2195 273.915 18.8382 274.339 18.5839 274.678C18.2873 275.059 17.6941 275.822 16.6348 275.822C16.1263 275.822 15.6178 275.653 15.067 275.314C14.05 274.72 13.3297 274.085 12.1856 273.068L11.9314 272.814C10.9144 271.669 10.2788 270.949 9.68563 269.932C8.45681 267.856 9.77037 266.839 10.3212 266.415C10.6602 266.161 11.0839 265.78 11.2958 265.61C11.55 265.356 11.55 264.297 11.1687 263.703L11.0839 263.534C10.406 262.475 9.47376 261.034 8.41444 259.424C8.07546 258.915 7.52461 258.619 6.93139 258.619Z" fill="#FF6B00"/>
<path d="M43.0368 283C42.7059 283 42.4301 282.891 42.1544 282.782L38.9559 280.93C38.5147 280.712 38.239 280.331 38.1287 279.84C38.0184 279.459 38.0735 279.023 38.239 278.642L39.0662 275.21L38.0735 273.521L34.6544 272.541C33.7169 272.486 33 271.778 33 270.852V267.202C33 266.276 33.7169 265.514 34.5993 265.459L38.0184 264.479L39.011 262.79L38.1838 259.358C38.0184 258.977 37.9632 258.541 38.0735 258.16C38.1838 257.724 38.5147 257.342 38.9007 257.07L42.0993 255.218C42.375 255.109 42.7059 255 43.0368 255C43.6434 255 44.1397 255.272 44.4706 255.763L47.0074 258.214H48.9926L51.5294 255.763C51.9154 255.272 52.4669 255 53.0184 255C53.3493 255 53.625 255.109 53.9007 255.218L57.0993 257.07C57.5404 257.288 57.8162 257.669 57.9265 258.16C58.0368 258.541 57.9816 258.977 57.8162 259.358L56.989 262.79L57.9816 264.479L61.4007 265.459C62.2831 265.568 63 266.276 63 267.202V270.852C63 271.778 62.2831 272.541 61.4007 272.595L57.9816 273.576L56.989 275.265L57.8162 278.696C57.9816 279.078 58.0368 279.514 57.9265 279.895C57.8162 280.331 57.4853 280.712 57.0993 280.984L53.9559 282.782C53.6801 282.946 53.3493 283 53.0735 283C52.4669 283 51.9706 282.728 51.6397 282.237L49.1029 279.786H47.1176L44.5809 282.237C44.1397 282.728 43.5882 283 43.0368 283ZM40.114 279.296L42.9265 280.93L46.1801 277.825H49.8199L53.0735 280.93L55.886 279.296L54.7831 274.938L56.6029 271.833L60.9596 270.58V267.366L56.6029 266.113L54.7831 263.008L55.886 258.65L53.0735 257.016L49.8199 260.121H46.2353L42.9265 257.07L40.114 258.704L41.2169 263.062L39.3971 266.167L35.0404 267.42V270.634L39.3971 271.887L41.2169 274.992L40.114 279.296Z" fill="#FF6B00"/>
<path d="M48.0552 266.167C49.6545 266.167 50.9229 267.42 50.9229 269C50.9229 270.58 49.6545 271.833 48.0552 271.833C46.4559 271.833 45.1876 270.58 45.1876 269C45.1324 267.42 46.4559 266.167 48.0552 266.167ZM48.0552 264.152C45.353 264.152 43.1471 266.331 43.1471 269C43.1471 271.669 45.353 273.848 48.0552 273.848C50.7574 273.848 52.9633 271.669 52.9633 269C52.9633 266.331 50.7574 264.152 48.0552 264.152Z" fill="#FF6B00"/>
<path d="M86.7899 254.028C84.2749 253.828 81.6925 254.697 79.774 256.615C77.2949 259.094 76.5948 262.674 77.6547 265.794L66.1437 277.303C64.6188 278.827 64.6188 281.332 66.1437 282.856C67.6687 284.381 70.1735 284.381 71.6985 282.856L83.2095 271.336C86.3301 272.398 89.9093 271.708 92.3893 269.228C94.9473 266.671 95.6288 262.933 94.4193 259.749C94.3564 259.581 94.2522 259.432 94.1163 259.314C93.9804 259.197 93.8173 259.116 93.6418 259.078C93.4663 259.04 93.2842 259.047 93.1121 259.098C92.94 259.149 92.7835 259.243 92.657 259.37L88.6081 263.429C87.756 264.281 86.4262 264.281 85.5742 263.429C84.7221 262.577 84.7221 261.248 85.5742 260.396L89.6343 256.348C89.7615 256.221 89.855 256.065 89.906 255.893C89.957 255.721 89.964 255.538 89.9262 255.363C89.8885 255.188 89.8072 255.024 89.6899 254.889C89.5726 254.753 89.4231 254.649 89.255 254.586C88.459 254.283 87.6283 254.095 86.7899 254.028ZM86.6226 256.169C86.6647 256.173 86.7033 256.199 86.7453 256.203L84.0572 258.879C82.3924 260.544 82.3924 263.27 84.0572 264.935C85.722 266.599 88.4491 266.599 90.1139 264.935L92.802 262.247C92.9997 264.199 92.3735 266.211 90.8723 267.712C88.8324 269.751 85.8354 270.215 83.3545 269.128C83.1577 269.043 82.9398 269.018 82.729 269.058C82.5182 269.098 82.3242 269.2 82.1721 269.351L70.1815 281.34C69.4693 282.052 68.3729 282.052 67.6607 281.34C66.9485 280.628 66.9485 279.531 67.6607 278.819L79.6402 266.831C79.7915 266.679 79.8937 266.485 79.9335 266.274C79.9733 266.063 79.9488 265.845 79.8633 265.649C78.7761 263.168 79.2511 260.172 81.291 258.132C82.7571 256.666 84.7136 256.015 86.6226 256.169Z" fill="#FF6B00"/>
<g clip-path="url(#clip0)">
<path d="M146.611 254H132V284H156.412V263.847L146.611 254ZM147.252 257.756L152.656 263.16H147.252V257.756ZM134.198 281.802V256.198H145.053V265.359H154.214V281.756H134.198V281.802Z" fill="#FF6B00"/>
</g>
<g clip-path="url(#clip1)">
<path d="M167.07 282.674V276.246C163.232 274.059 161 270.533 161 266.784C161 260.267 167.74 255 175.997 255C184.255 255 190.995 260.267 190.995 266.784C190.995 273.211 184.389 278.478 176.221 278.567L167.07 282.674ZM175.997 257.142C168.9 257.142 163.142 261.472 163.142 266.784C163.142 269.908 165.196 272.854 168.633 274.684L169.213 274.997V279.371L175.774 276.425H175.997C183.094 276.425 188.852 272.095 188.852 266.784C188.852 261.472 183.094 257.142 175.997 257.142Z" fill="#FF6B00"/>
</g>
<path fill-rule="evenodd" clip-rule="evenodd" d="M23 235C23 233.343 24.3431 232 26 232H40C41.6569 232 43 233.343 43 235V249C43 250.657 41.6569 252 40 252H26C24.3431 252 23 250.657 23 249V235Z" fill="#238CC8"/>
<path fill-rule="evenodd" clip-rule="evenodd" d="M28.4571 236C27.6 236 27 236.507 27 237.268C27 238.028 27.6 238.535 28.4571 238.535C29.4 238.535 29.9143 238.028 29.9143 237.268C29.8286 236.507 29.3143 236 28.4571 236ZM27.2571 247.831H29.5714V239.634H27.2571C27.2571 239.718 27.2571 247.831 27.2571 247.831ZM36.1714 239.38C34.8 239.38 33.8571 240.056 33.5143 240.563L33.3429 239.718H31.2857V247.915H33.6V243.014C33.6 242.761 33.6 242.507 33.6857 242.423C33.8571 242 34.4571 241.493 35.1429 241.493C36.0857 241.493 36.6857 242.169 36.6857 243.268V248H39V242.93C39 240.394 37.8 239.38 36.1714 239.38Z" fill="white"/>
<path d="M104.652 18.3657L109.636 23.6748C109.684 23.7231 109.829 23.7713 109.877 23.6748L116.36 18.3657C116.506 18.2692 116.409 18.0279 116.264 18.0279H104.846C104.604 18.0762 104.507 18.2692 104.652 18.3657Z" fill="white"/>
<path d="M98.7982 30.3835C98.7982 30.3835 91.5411 30.3835 90.8154 30.3835C90.9122 29.8044 91.4443 26.9568 91.5895 26.2811C91.5895 26.1846 91.6862 26.1363 91.7346 26.1363H100.395C100.491 26.1363 100.54 26.088 100.588 25.9915L102.088 18.2692C102.088 18.1727 102.04 18.0762 101.943 18.0762L82.1553 18.0279C82.0586 18.0279 82.0102 18.0762 81.9618 18.1727L76.3013 47.7104C76.3013 47.807 76.3497 47.9035 76.4948 47.9035H87.3804C87.4772 47.9035 87.5255 47.8552 87.5739 47.7587C87.7674 46.6486 89.1705 39.3607 89.2189 39.0229H97.0565C97.1532 39.0229 97.2016 38.9746 97.25 38.8781L98.7982 30.3835Z" fill="white"/>
<path d="M51.1919 1.03886L16.9386 32.8933C30.8238 24.9297 38.7581 21.3581 48.1439 18.0761L51.4821 1.18365C51.5305 1.03886 51.2886 0.942327 51.1919 1.03886Z" fill="white"/>
<path d="M11.2781 38.1541L3.58566 45.2972L1.06988 47.6139C0.924742 47.7104 1.0215 47.9517 1.21502 47.9517L13.939 47.9035C13.9874 47.9035 14.0358 47.9035 14.0842 47.8552L19.406 41.6774C19.4544 41.6291 19.5028 41.6291 19.5512 41.6291L31.7914 41.5808C31.8881 41.5808 31.9849 41.6774 31.9849 41.8222L30.8238 47.7587C30.8238 47.8552 30.8721 48 31.0173 48L42.1448 47.9517C42.2415 47.9517 42.2899 47.9035 42.3383 47.8069L45.3379 32.4106L45.5798 31.1075C42.8221 26.9085 27.9209 30.2387 11.2781 38.1541Z" fill="white"/>
<path d="M148.871 18.3174H148.291L147.952 20.248H147.711L148.049 18.3174H147.469L147.517 18.0761H148.92L148.871 18.3174Z" fill="white"/>
<path d="M149.549 18.0761L149.791 19.8136L150.661 18.0761H151L150.661 20.248H150.371L150.516 19.3793L150.71 18.5588L149.839 20.248H149.646L149.404 18.5105L149.259 19.4275L149.114 20.248H148.824L149.211 18.0761H149.549Z" fill="white"/>
<path d="M103.152 25.7019L98.895 47.7587C98.895 47.8552 98.9434 47.9517 99.0885 47.9517L110.458 48C110.555 48 110.603 47.9517 110.651 47.8552L114.86 25.7984C114.86 25.7019 114.812 25.6054 114.667 25.6054H103.346C103.249 25.5571 103.201 25.6054 103.152 25.7019Z" fill="white"/>
<path d="M131.116 18.0761H119.795C119.699 18.0761 119.65 18.1244 119.602 18.2209L113.893 47.7587C113.893 47.8552 113.941 47.9517 114.038 47.9517H125.262C125.359 47.9517 125.407 47.9034 125.407 47.8069L131.165 18.2692C131.31 18.1727 131.213 18.0761 131.116 18.0761Z" fill="white"/>
<path d="M145.921 18.0761H134.6C134.503 18.0761 134.455 18.1244 134.406 18.2209L128.697 47.7587C128.697 47.8552 128.746 47.9517 128.842 47.9517H140.067C140.163 47.9517 140.212 47.9034 140.26 47.8069L146.017 18.2692C146.114 18.1727 146.017 18.0761 145.921 18.0761Z" fill="white"/>
<path d="M62.7548 18.0761H51.4338C51.3371 18.0761 51.2887 18.1244 51.2403 18.2209L45.5798 47.7104C45.5798 47.8069 45.6282 47.9034 45.7249 47.9034H56.9492C57.0459 47.9034 57.0943 47.8552 57.1427 47.7587L62.8999 18.2209C62.9483 18.1727 62.8516 18.0761 62.7548 18.0761Z" fill="white"/>
<path d="M77.6077 18.0761H66.2867C66.1899 18.0761 66.1416 18.1244 66.0932 18.2209L60.4327 47.7104C60.4327 47.8069 60.4811 47.9034 60.5778 47.9034H71.802C71.8988 47.9034 71.9472 47.8552 71.9956 47.7587L77.7528 18.2209C77.8012 18.1727 77.7044 18.0761 77.6077 18.0761Z" fill="white"/>
<path d="M112.066 253.903L112.042 253.897L112.018 253.903L97.9758 257.403L97.9 257.422V257.5V284V284.1H98H106.676H117.408H126.084H126.184V284V257.5V257.422L126.108 257.403L112.066 253.903ZM124.276 259.209V282.193H120.508V264.143V264.043H120.408H103.676H103.576V264.143V282.193H99.8073V259.209L112.042 256.228L124.276 259.209ZM105.448 282.193V265.915H118.6V282.193H105.448Z" fill="#FF6B00" stroke="#FF6B00" stroke-width="0.2"/>
<path fill-rule="evenodd" clip-rule="evenodd" d="M108.25 275L103.5 275V284H106.435H110.065H113V275L108.25 275ZM109.675 282H106.818H106.46H105.611V277.001L108.25 277L110.889 277.001V282H110.04H109.675Z" fill="#FF6B00"/>
<path fill-rule="evenodd" clip-rule="evenodd" d="M115.75 275L111 275V284H113.935H117.565H120.5V275L115.75 275ZM117.175 282H114.318H113.96H113.111V277.001L115.75 277L118.389 277.001V282H117.54H117.175Z" fill="#FF6B00"/>
<path fill-rule="evenodd" clip-rule="evenodd" d="M112 269L108 269V277H110.471H113.529H116V269L112 269ZM113.08 275H110.915H110.644H110V271.001L112 271L114 271.001V275H113.356H113.08Z" fill="#FF6B00"/>
<path d="M3 293L7 297L14 290" stroke="#FF6B00" stroke-width="3" stroke-linecap="round" stroke-linejoin="round"/>
<path fill-rule="evenodd" clip-rule="evenodd" d="M272 81C263.716 81 257 87.7157 257 96C257 104.284 263.716 111 272 111C280.284 111 287 104.284 287 96C287 87.7157 280.284 81 272 81ZM278.11 93.6721C278.11 93.5431 278.106 93.4161 278.101 93.2891C278.678 92.8731 279.178 92.3521 279.576 91.7601C279.045 91.9961 278.475 92.1541 277.877 92.2251C278.489 91.8591 278.956 91.2811 279.177 90.5901C278.606 90.9301 277.974 91.1761 277.3 91.3071C276.762 90.7321 275.994 90.3751 275.145 90.3751C273.513 90.3751 272.191 91.6971 272.191 93.3281C272.191 93.5601 272.216 93.7851 272.266 94.0021C269.811 93.8791 267.633 92.7031 266.177 90.9161C265.923 91.3521 265.778 91.8591 265.778 92.4001C265.778 93.4261 266.299 94.3301 267.092 94.8591C266.608 94.8441 266.151 94.7111 265.752 94.4901V94.5271C265.752 95.9591 266.772 97.1521 268.123 97.4241C267.875 97.4921 267.614 97.5271 267.345 97.5271C267.155 97.5271 266.969 97.5101 266.788 97.4751C267.166 98.6481 268.256 99.5021 269.549 99.5251C268.538 100.318 267.264 100.791 265.88 100.791C265.642 100.791 265.407 100.777 265.174 100.75C266.481 101.588 268.035 102.078 269.703 102.078C275.137 102.078 278.11 97.5761 278.11 93.6721Z" fill="#FF6B00"/>
<path fill-rule="evenodd" clip-rule="evenodd" d="M304 81C295.716 81 289 87.7157 289 96C289 104.284 295.716 111 304 111C312.284 111 319 104.284 319 96C319 87.7157 312.284 81 304 81ZM305.297 91.3672H307.553V88.8942H305.297C303.432 88.8942 302.071 90.4882 302.071 92.4472V93.8142H299.658V96.1352H302.071V103.105H304.734V96.1352H307.553V93.8142H304.734V92.1852C304.734 91.7172 305.031 91.3672 305.297 91.3672Z" fill="#FF6B00"/>
<path fill-rule="evenodd" clip-rule="evenodd" d="M336 81C327.716 81 321 87.7157 321 96C321 104.284 327.716 111 336 111C344.284 111 351 104.284 351 96C351 87.7157 344.284 81 336 81ZM332.702 88.0481C333.555 88.0092 333.827 88 336 88C338.173 88 338.445 88.0092 339.298 88.0481C340.15 88.087 340.731 88.2222 341.24 88.42C341.766 88.6244 342.213 88.898 342.657 89.3427C343.102 89.7875 343.376 90.2336 343.58 90.7597C343.778 91.2686 343.913 91.8501 343.952 92.7016C343.991 93.5549 344 93.8273 344 96C344 98.1727 343.991 98.4451 343.952 99.2984C343.913 100.15 343.778 100.731 343.58 101.24C343.376 101.766 343.102 102.212 342.657 102.657C342.213 103.102 341.766 103.376 341.24 103.58C340.731 103.778 340.15 103.913 339.298 103.952C338.445 103.991 338.173 104 336 104C333.827 104 333.555 103.991 332.702 103.952C331.85 103.913 331.269 103.778 330.76 103.58C330.234 103.376 329.788 103.102 329.343 102.657C328.898 102.212 328.624 101.766 328.42 101.24C328.222 100.731 328.087 100.15 328.048 99.2984C328.009 98.4451 328 98.1727 328 96C328 93.8273 328.009 93.5549 328.048 92.7016C328.087 91.8501 328.222 91.2686 328.42 90.7597C328.624 90.2336 328.898 89.7875 329.343 89.3427C329.788 88.898 330.234 88.6244 330.76 88.42C331.269 88.2222 331.85 88.087 332.702 88.0481ZM339.233 89.4881C338.389 89.4496 338.136 89.4414 336 89.4414C333.864 89.4414 333.611 89.4496 332.767 89.4881C331.987 89.5237 331.564 89.654 331.282 89.7635C330.908 89.9087 330.642 90.082 330.362 90.362C330.082 90.6419 329.909 90.9084 329.764 91.2818C329.654 91.5637 329.524 91.9873 329.488 92.7673C329.45 93.6109 329.441 93.8639 329.441 96C329.441 98.1361 329.45 98.3891 329.488 99.2327C329.524 100.013 329.654 100.436 329.764 100.718C329.909 101.092 330.082 101.358 330.362 101.638C330.642 101.918 330.908 102.091 331.282 102.236C331.564 102.346 331.987 102.476 332.767 102.512C333.611 102.55 333.864 102.559 336 102.559C338.136 102.559 338.389 102.55 339.233 102.512C340.013 102.476 340.436 102.346 340.718 102.236C341.092 102.091 341.358 101.918 341.638 101.638C341.918 101.358 342.091 101.092 342.236 100.718C342.346 100.436 342.476 100.013 342.512 99.2327C342.55 98.3891 342.559 98.1361 342.559 96C342.559 93.8639 342.55 93.6109 342.512 92.7673C342.476 91.9873 342.346 91.5637 342.236 91.2818C342.091 90.9084 341.918 90.6419 341.638 90.362C341.358 90.082 341.092 89.9087 340.718 89.7635C340.436 89.654 340.013 89.5237 339.233 89.4881ZM336 91.8919C333.731 91.8919 331.892 93.7311 331.892 96C331.892 98.2689 333.731 100.108 336 100.108C338.269 100.108 340.108 98.2689 340.108 96C340.108 93.7311 338.269 91.8919 336 91.8919ZM333.333 96C333.333 97.4728 334.527 98.6667 336 98.6667C337.473 98.6667 338.667 97.4728 338.667 96C338.667 94.5272 337.473 93.3333 336 93.3333C334.527 93.3333 333.333 94.5272 333.333 96ZM341.23 91.7296C341.23 92.2598 340.801 92.6896 340.27 92.6896C339.74 92.6896 339.31 92.2598 339.31 91.7296C339.31 91.1994 339.74 90.7696 340.27 90.7696C340.801 90.7696 341.23 91.1994 341.23 91.7296Z" fill="#FF6B00"/>
<path fill-rule="evenodd" clip-rule="evenodd" d="M367 81C358.716 81 352 87.7157 352 96C352 104.284 358.716 111 367 111C375.284 111 382 104.284 382 96C382 87.7157 375.284 81 367 81ZM367.6 93.4C368 92.8 369.1 92 370.7 92C372.6 92 374 93.2 374 96.2V102.2H371.3V96.6C371.3 95.3 370.6 94.5 369.5 94.5C368.7 94.5 368 95.1 367.8 95.6C367.7 95.7 367.7 96 367.7 96.3V102.1H365V92.4H367.4L367.6 93.4ZM363 102H360.3V92.3H363V102ZM360 89.5C360 88.6 360.7 88 361.7 88C362.7 88 363.3 88.6 363.4 89.5C363.4 90.4 362.8 91 361.7 91C360.7 91 360 90.4 360 89.5Z" fill="#FF6B00"/>
<path fill-rule="evenodd" clip-rule="evenodd" d="M400 81C391.716 81 385 87.7157 385 96C385 104.284 391.716 111 400 111C408.284 111 415 104.284 415 96C415 87.7157 408.284 81 400 81ZM392 96.0005C392 91.5816 395.583 88 400 88C404.418 88 408 91.5816 408 96.0005C408 100.418 404.418 104 400 104C399.213 104 398.453 103.884 397.733 103.672C398.037 103.192 398.369 102.575 398.538 101.958C398.636 101.603 399.101 99.7599 399.101 99.7599C399.38 100.29 400.192 100.756 401.055 100.756C403.628 100.756 405.372 98.4117 405.372 95.2732C405.372 92.9015 403.362 90.6897 400.307 90.6897C396.506 90.6897 394.59 93.4161 394.59 95.6881C394.59 97.0645 395.11 98.2885 396.229 98.7448C396.411 98.82 396.575 98.7466 396.629 98.5444C396.649 98.4669 396.685 98.3235 396.72 98.1862C396.748 98.0751 396.775 97.968 396.791 97.9027C396.845 97.7014 396.825 97.6318 396.677 97.4559C396.355 97.0758 396.15 96.5847 396.15 95.8866C396.15 93.8658 397.662 92.0567 400.088 92.0567C402.236 92.0567 403.416 93.3691 403.416 95.1218C403.416 97.4286 402.396 99.3751 400.88 99.3751C400.043 99.3751 399.417 98.6836 399.618 97.8341C399.705 97.4665 399.821 97.0884 399.935 96.7208C400.135 96.0749 400.324 95.4616 400.324 94.9957C400.324 94.3409 399.972 93.7943 399.245 93.7943C398.39 93.7943 397.702 94.6796 397.702 95.865C397.702 96.6205 397.957 97.1313 397.957 97.1313C397.957 97.1313 397.082 100.841 396.928 101.49C396.786 102.098 396.767 102.769 396.79 103.327C393.97 102.09 392 99.2754 392 96.0005Z" fill="#FF6B00"/>
<path fill-rule="evenodd" clip-rule="evenodd" d="M464 81C455.716 81 449 87.7157 449 96C449 104.284 455.716 111 464 111C472.284 111 479 104.284 479 96C479 87.7157 472.284 81 464 81ZM468.66 99.2983C470.921 96.3927 472.09 94.1044 472.165 92.4334C472.267 90.1962 471.436 89.0543 469.672 89.0033C467.291 88.9244 465.68 90.2704 464.836 93.0322C465.272 92.8419 465.694 92.749 466.107 92.749C466.98 92.749 467.365 93.2411 467.263 94.2204C467.212 94.8146 466.827 95.6779 466.107 96.8151C465.388 97.9523 464.845 98.5186 464.487 98.5186C464.023 98.5186 463.601 97.6459 463.216 95.8961C463.086 95.3808 462.854 94.0719 462.519 91.96C462.208 90.0059 461.387 89.0915 460.05 89.2214C459.484 89.2725 458.639 89.7877 457.506 90.7624C456.685 91.5051 455.849 92.2524 455 92.9951L455.808 94.0348C456.574 93.4963 457.024 93.2271 457.154 93.2271C457.743 93.2271 458.291 94.1508 458.806 95.9982C459.038 96.8453 459.269 97.6924 459.5 98.5395C459.731 99.3866 459.962 100.234 460.194 101.081C460.886 102.928 461.73 103.852 462.733 103.852C464.348 103.852 466.325 102.334 468.66 99.2983Z" fill="#FF6B00"/>
<path fill-rule="evenodd" clip-rule="evenodd" d="M496 81C487.716 81 481 87.7157 481 96C481 104.284 487.716 111 496 111C504.284 111 511 104.284 511 96C511 87.7157 504.284 81 496 81ZM490.03 98.3013C489.942 97.4308 490.05 96.1193 490.306 95.7028C490.426 95.5103 490.601 95.4103 490.797 95.4178C490.925 95.4193 491.039 95.4613 493.579 96.5258C493.581 96.5258 494.321 96.8328 494.321 96.8328C494.59 96.9348 494.753 97.2183 494.736 97.5383C494.718 97.8513 494.542 98.0963 494.28 98.1633C494.276 98.1658 493.225 98.5058 493.225 98.5058C490.861 99.2783 490.783 99.3003 490.658 99.2933C490.461 99.2868 490.289 99.1688 490.187 98.9713C490.113 98.8283 490.062 98.5888 490.03 98.3013ZM496.041 100.907C496.034 103.431 496.03 103.514 495.988 103.635C495.92 103.823 495.761 103.948 495.541 103.989C494.909 104.099 492.93 103.359 492.517 102.86C492.434 102.757 492.385 102.645 492.374 102.533C492.364 102.454 492.376 102.376 492.402 102.301C492.445 102.175 492.518 102.077 494.299 99.9536C494.301 99.9536 494.819 99.3287 494.819 99.3287C494.996 99.1037 495.312 99.0327 495.605 99.1472C495.891 99.2597 496.064 99.5082 496.048 99.7806C496.047 99.7926 496.041 100.907 496.041 100.907ZM501.993 100.185C501.901 100.833 500.599 102.515 500.002 102.757C499.795 102.842 499.597 102.821 499.441 102.696C499.34 102.616 499.233 102.453 497.83 100.138L497.413 99.4486C497.253 99.2011 497.284 98.8756 497.484 98.6281C497.676 98.3856 497.963 98.2951 498.213 98.3936C498.227 98.4001 499.263 98.7481 499.263 98.7481C501.625 99.5356 501.702 99.5655 501.802 99.642C501.955 99.7655 502.024 99.96 501.993 100.185ZM501.677 96.0328C501.571 96.1033 501.467 96.1388 498.782 96.7993C498.352 96.9033 498.114 96.9618 497.982 97.0133C497.985 97.0093 497.996 96.9903 497.996 96.9903C497.728 97.0658 497.435 96.9348 497.262 96.6658C497.095 96.4058 497.097 96.1018 497.268 95.8908C497.276 95.8823 497.926 94.9828 497.926 94.9828C499.363 92.9858 499.44 92.8823 499.544 92.8133C499.71 92.6998 499.912 92.6928 500.113 92.7913C500.682 93.0738 501.838 94.8168 501.907 95.4858C501.908 95.4943 501.907 95.5013 501.907 95.5088C501.921 95.7358 501.839 95.9223 501.677 96.0328ZM495.683 88.429C495.721 88.6525 496.04 93.4664 496.086 94.5469C496.13 95.4677 495.742 95.5911 495.615 95.6317L495.614 95.6319C495.486 95.6724 495.095 95.7949 494.615 95.0044C494.615 95.0044 491.368 89.8165 491.292 89.6565C491.246 89.477 491.304 89.273 491.459 89.108C491.945 88.599 494.564 87.8525 495.249 88.0255C495.473 88.083 495.628 88.2275 495.683 88.429Z" fill="#FF6B00"/>
<path fill-rule="evenodd" clip-rule="evenodd" d="M432 81C423.716 81 417 87.7157 417 96C417 104.284 423.716 111 432 111C440.284 111 447 104.284 447 96C447 87.7157 440.284 81 432 81ZM430.221 93.4192L430.221 98.2129L434.798 95.8243L430.221 93.4192ZM439.654 90.8952C440.164 91.4129 440.33 92.5885 440.33 92.5885C440.33 92.5885 440.5 93.9694 440.5 95.3498V96.6443C440.5 98.0252 440.33 99.4056 440.33 99.4056C440.33 99.4056 440.164 100.581 439.654 101.099C439.072 101.711 438.426 101.775 438.061 101.81C438.021 101.814 437.984 101.818 437.951 101.822C435.572 101.995 432 102 432 102C432 102 427.58 101.959 426.22 101.828C426.156 101.816 426.077 101.807 425.989 101.796C425.558 101.744 424.882 101.663 424.345 101.099C423.836 100.581 423.67 99.4056 423.67 99.4056C423.67 99.4056 423.5 98.0252 423.5 96.6443V95.3498C423.5 93.9694 423.67 92.5885 423.67 92.5885C423.67 92.5885 423.836 91.4129 424.345 90.8952C424.929 90.2819 425.575 90.2193 425.941 90.184C425.98 90.1801 426.016 90.1766 426.049 90.1727C428.428 90 431.996 90 431.996 90H432.004C432.004 90 435.572 90 437.951 90.1727C437.984 90.1766 438.02 90.1801 438.059 90.184C438.424 90.2193 439.071 90.282 439.654 90.8952Z" fill="#FF6B00"/>
<defs>
<clipPath id="clip0">
<rect width="24.4122" height="30" fill="white" transform="translate(132 254)"/>
</clipPath>
<clipPath id="clip1">
<rect width="29.9948" height="27.6738" fill="white" transform="translate(161 255)"/>
</clipPath>
</defs>
</svg>
