<svg width="370" height="344" viewBox="0 0 370 344" fill="none" xmlns="http://www.w3.org/2000/svg">
<g opacity="0.2">
<path d="M367.826 0.329239L116.806 233.416C218.561 175.144 276.707 149.01 345.49 124.995L369.954 1.38872C370.308 0.329239 368.535 -0.377085 367.826 0.329239Z" fill="white"/>
<path d="M75.3218 271.911L18.9486 324.178L0.512125 341.13C-0.551519 341.837 0.157577 343.602 1.57577 343.602L94.8219 343.249C95.1765 343.249 95.531 343.249 95.8856 342.896L134.886 297.691C135.24 297.338 135.595 297.338 135.95 297.338L225.65 296.985C226.359 296.985 227.068 297.691 227.068 298.751L218.559 342.19C218.559 342.896 218.914 343.955 219.977 343.955L301.523 343.602C302.233 343.602 302.587 343.249 302.942 342.543L324.924 229.884L326.696 220.349C306.487 189.624 197.286 213.992 75.3218 271.911Z" fill="white"/>
</g>
</svg>
