<svg xmlns="http://www.w3.org/2000/svg" width="32.024" height="84.502" viewBox="0 0 32.024 84.502">
  <g id="Group_13384" data-name="Group 13384" transform="translate(-357.208 -211.407)">
    <path id="Path_1837" data-name="Path 1837" d="M378.937,242.9c5.039-2.236,9.393-4.166,10.254-7.432a2.013,2.013,0,0,0-.223-1.305,2.38,2.38,0,0,1-.2-.59,3.032,3.032,0,0,0-1.479-2.084,31.14,31.14,0,0,0-4.4-2.751l-.2-.1a11.114,11.114,0,0,0-1.179-.528l-.837-.306a29.661,29.661,0,0,0-3.08-.992l-.005-14.12a1.473,1.473,0,0,0-.735-1.038,1.859,1.859,0,0,0-1.554-.129c-.179.066-.363.14-.543.209l0-.007a42.249,42.249,0,0,0-4.467,2.065c-.059-.005-.094-.015-.16-.016l0,.1c-1.716.878-3.612,1.891-5.4,2.849-2.849,1.523-5.54,2.962-6.576,3.355l.036.093a3.344,3.344,0,0,0-.7,2.973,6.615,6.615,0,0,0,3.753,4.019c.315.131.683.287.98.432l.361.181a10.139,10.139,0,0,0,1.334.6c.839.276,1.656.632,2.448.976a26.06,26.06,0,0,0,2.907,1.093V244.4c-.78.352-1.584.716-2.407,1.089-3.208,1.457-6.526,2.965-8.5,3.715l.229.6-.335-.52c-.965.624-1.156,2.434-.995,3.269a3.443,3.443,0,0,0,.071,1.059,6.613,6.613,0,0,0,3.756,4.017c.313.13.68.287.974.431l.331.166a10.179,10.179,0,0,0,1.367.61c.839.278,1.658.633,2.451.978a24.846,24.846,0,0,0,3.058,1.143v13.846c-.847.38-1.735.784-2.634,1.193-2.582,1.173-5.253,2.385-7.2,3.192l-1.583.618.264,1.322,3.118-.075,8.036.037v6.734h.846v8.081h6.908v-8.081h.617L377.6,273.9l1.185-.527c5.039-2.236,9.393-4.166,10.255-7.432a2.02,2.02,0,0,0-.224-1.308,2.431,2.431,0,0,1-.2-.587,3.023,3.023,0,0,0-1.48-2.085,31.528,31.528,0,0,0-4.4-2.752l-.223-.109a11.012,11.012,0,0,0-1.158-.519l-.836-.306c-.94-.349-1.917-.683-2.923-.948V243.5C378.045,243.3,378.5,243.091,378.937,242.9Zm-8.6-22.588a1.407,1.407,0,0,1-.168-.148,1.233,1.233,0,0,0-1.719-.216l.813,1.025v.063a.28.28,0,0,1-.194-.018,1.612,1.612,0,0,1,.159.14l.036.033V229c-.791-.263-1.567-.569-2.363-.915-.82-.356-1.667-.724-2.563-1.019a9.1,9.1,0,0,1-1.147-.519l-.376-.189c-.319-.155-.714-.322-1.052-.465a5.241,5.241,0,0,1-2.953-3.074,1.951,1.951,0,0,1,.368-1.7c1.3-.583,3.589-1.807,6.193-3.2,1.717-.918,3.533-1.887,5.182-2.735a1.161,1.161,0,0,0,.706-.07,17.594,17.594,0,0,0,1.832-1.036l.594-.364a12.092,12.092,0,0,1,2.082-.913,1,1,0,0,1,.46-.005v23.434l.412.3a1.531,1.531,0,0,1,.168.148,1.523,1.523,0,0,0,.995.487,1.164,1.164,0,0,0,.722-.272l-.851-1.073a.282.282,0,0,1,.233,0,1.349,1.349,0,0,1-.16-.14c-.049-.047-.1-.094-.151-.137l0-7.328c.866.239,1.72.53,2.605.858l.848.312a10.13,10.13,0,0,1,1.037.467l.2.1A30.154,30.154,0,0,1,386.5,232.6c.519.372.873.7.915,1.115a2.085,2.085,0,0,0,.062.27c-.992,3.152-6.752,5.555-12.335,7.88-.889.369-1.779.739-2.654,1.114-.558.239-1.19.519-1.849.813V220.513Zm1.61,24.392q-1.921.952-4.957,2.233l.431-.2C369.035,246,370.6,245.293,371.951,244.7ZM367.2,277.245c1.661-.754,3.285-1.491,4.668-2.1-1.3.647-3,1.413-5.091,2.29C366.917,277.374,367.057,277.309,367.2,277.245Zm7.525,10.839v-.256h.929v6.713H371.48v-6.713h.932v.256Zm-4.088-1.624v-6.09l-.078-1.085-.851.441h-4.891c3.782-1.531,6.615-2.791,8.445-3.756.967-.508,1.966-.988,2.97-1.45l.04,11.941ZM376.4,266.9l.159.109a1.914,1.914,0,0,1,.171.148,1.509,1.509,0,0,0,.993.488,1.174,1.174,0,0,0,.72-.271L377.6,266.3a.286.286,0,0,1,.23,0,1.74,1.74,0,0,1-.159-.138c-.025-.023-.048-.047-.074-.07v-7.353c.813.234,1.616.506,2.446.814l.85.311a10.116,10.116,0,0,1,1.014.457l.227.112a30.273,30.273,0,0,1,4.209,2.638c.612.435.877.758.914,1.114a1.966,1.966,0,0,0,.057.315c-1.032,3.129-6.771,5.519-12.326,7.832-.889.371-1.783.742-2.658,1.118-.52.222-1.089.472-1.7.74V251.448l-.3-.2a1.428,1.428,0,0,1-.17-.148,1.233,1.233,0,0,0-1.714-.218l.811,1.032v.059a.3.3,0,0,1-.194-.016,1.592,1.592,0,0,1,.159.14l.036.033v7.4a26.788,26.788,0,0,1-2.512-.965c-.821-.357-1.669-.725-2.567-1.022a9.5,9.5,0,0,1-1.181-.532l-.343-.172c-.317-.156-.714-.326-1.051-.467a5.237,5.237,0,0,1-2.951-3.073,1.954,1.954,0,0,1,.387-1.729c4.73-1.8,10.983-4.294,14.365-6.074.917-.483,1.864-.939,2.816-1.379v22.249Z" transform="translate(0 0)" fill="#ff651f"/>
    <rect id="Rectangle_1827" data-name="Rectangle 1827" width="4.155" height="0.342" transform="translate(371.489 293.477)" fill="#ff651f"/>
    <rect id="Rectangle_1828" data-name="Rectangle 1828" width="2.309" height="0.342" transform="translate(372.451 294.168)" fill="#ff651f"/>
    <rect id="Rectangle_1829" data-name="Rectangle 1829" width="4.155" height="0.342" transform="translate(371.489 288.357)" fill="#ff651f"/>
    <rect id="Rectangle_1830" data-name="Rectangle 1830" width="2.31" height="0.342" transform="translate(372.412 292.86)" fill="#ff651f"/>
    <rect id="Rectangle_1831" data-name="Rectangle 1831" width="4.155" height="0.342" transform="translate(371.489 292.206)" fill="#ff651f"/>
    <rect id="Rectangle_1832" data-name="Rectangle 1832" width="2.31" height="0.342" transform="translate(372.412 290.321)" fill="#ff651f"/>
    <rect id="Rectangle_1833" data-name="Rectangle 1833" width="2.31" height="0.342" transform="translate(372.412 289.051)" fill="#ff651f"/>
    <rect id="Rectangle_1834" data-name="Rectangle 1834" width="4.155" height="0.342" transform="translate(371.489 289.665)" fill="#ff651f"/>
    <rect id="Rectangle_1835" data-name="Rectangle 1835" width="2.31" height="0.342" transform="translate(372.412 291.591)" fill="#ff651f"/>
    <rect id="Rectangle_1836" data-name="Rectangle 1836" width="4.155" height="0.342" transform="translate(371.489 290.937)" fill="#ff651f"/>
  </g>
</svg>
